<mxfile host="Electron" agent="Mozilla/5.0 (Windows NT 10.0; Win64; x64) AppleWebKit/537.36 (KHTML, like Gecko) draw.io/27.0.9 Chrome/134.0.6998.205 Electron/35.4.0 Safari/537.36" version="27.0.9">
  <diagram id="C5RBs43oDa-KdzZeNtuy" name="Page-1">
    <mxGraphModel dx="2127" dy="669" grid="1" gridSize="10" guides="1" tooltips="1" connect="1" arrows="1" fold="1" page="1" pageScale="1" pageWidth="827" pageHeight="1169" math="0" shadow="0">
      <root>
        <mxCell id="WIyWlLk6GJQsqaUBKTNV-0" />
        <mxCell id="WIyWlLk6GJQsqaUBKTNV-1" parent="WIyWlLk6GJQsqaUBKTNV-0" />
        <mxCell id="zkfFHV4jXpPFQw0GAbJ--0" value="User" style="swimlane;fontStyle=2;align=center;verticalAlign=top;childLayout=stackLayout;horizontal=1;startSize=26;horizontalStack=0;resizeParent=1;resizeLast=0;collapsible=1;marginBottom=0;rounded=0;shadow=0;strokeWidth=1;fillColor=#00FF00;" parent="WIyWlLk6GJQsqaUBKTNV-1" vertex="1">
          <mxGeometry x="220" y="170" width="180" height="452" as="geometry">
            <mxRectangle x="230" y="140" width="160" height="26" as="alternateBounds" />
          </mxGeometry>
        </mxCell>
        <mxCell id="zkfFHV4jXpPFQw0GAbJ--1" value="id: UUID" style="text;align=left;verticalAlign=top;spacingLeft=4;spacingRight=4;overflow=hidden;rotatable=0;points=[[0,0.5],[1,0.5]];portConstraint=eastwest;" parent="zkfFHV4jXpPFQw0GAbJ--0" vertex="1">
          <mxGeometry y="26" width="180" height="26" as="geometry" />
        </mxCell>
        <mxCell id="si9qJeXfL94xBMsDzdu2-1" value="email: String, Unique - &#xa;internal validation check" style="text;align=left;verticalAlign=top;spacingLeft=4;spacingRight=4;overflow=hidden;rotatable=0;points=[[0,0.5],[1,0.5]];portConstraint=eastwest;rounded=0;shadow=0;html=0;" parent="zkfFHV4jXpPFQw0GAbJ--0" vertex="1">
          <mxGeometry y="52" width="180" height="36" as="geometry" />
        </mxCell>
        <mxCell id="si9qJeXfL94xBMsDzdu2-0" value="passwordHash: String" style="text;align=left;verticalAlign=top;spacingLeft=4;spacingRight=4;overflow=hidden;rotatable=0;points=[[0,0.5],[1,0.5]];portConstraint=eastwest;rounded=0;shadow=0;html=0;" parent="zkfFHV4jXpPFQw0GAbJ--0" vertex="1">
          <mxGeometry y="88" width="180" height="26" as="geometry" />
        </mxCell>
        <mxCell id="si9qJeXfL94xBMsDzdu2-3" value="Balances: ArrayList &lt;Balance&gt;" style="text;align=left;verticalAlign=top;spacingLeft=4;spacingRight=4;overflow=hidden;rotatable=0;points=[[0,0.5],[1,0.5]];portConstraint=eastwest;rounded=0;shadow=0;html=0;" parent="zkfFHV4jXpPFQw0GAbJ--0" vertex="1">
          <mxGeometry y="114" width="180" height="26" as="geometry" />
        </mxCell>
        <mxCell id="si9qJeXfL94xBMsDzdu2-5" value="accountStatus: Enum" style="text;align=left;verticalAlign=top;spacingLeft=4;spacingRight=4;overflow=hidden;rotatable=0;points=[[0,0.5],[1,0.5]];portConstraint=eastwest;rounded=0;shadow=0;html=0;" parent="zkfFHV4jXpPFQw0GAbJ--0" vertex="1">
          <mxGeometry y="140" width="180" height="26" as="geometry" />
        </mxCell>
        <mxCell id="si9qJeXfL94xBMsDzdu2-8" value="role: Enum" style="text;align=left;verticalAlign=top;spacingLeft=4;spacingRight=4;overflow=hidden;rotatable=0;points=[[0,0.5],[1,0.5]];portConstraint=eastwest;rounded=0;shadow=0;html=0;" parent="zkfFHV4jXpPFQw0GAbJ--0" vertex="1">
          <mxGeometry y="166" width="180" height="26" as="geometry" />
        </mxCell>
        <mxCell id="si9qJeXfL94xBMsDzdu2-11" value="tradeIds: Array&lt;UUID&gt;" style="text;align=left;verticalAlign=top;spacingLeft=4;spacingRight=4;overflow=hidden;rotatable=0;points=[[0,0.5],[1,0.5]];portConstraint=eastwest;rounded=0;shadow=0;html=0;" parent="zkfFHV4jXpPFQw0GAbJ--0" vertex="1">
          <mxGeometry y="192" width="180" height="26" as="geometry" />
        </mxCell>
        <mxCell id="si9qJeXfL94xBMsDzdu2-25" value="strategies: Array&lt;UUID&gt;" style="text;align=left;verticalAlign=top;spacingLeft=4;spacingRight=4;overflow=hidden;rotatable=0;points=[[0,0.5],[1,0.5]];portConstraint=eastwest;rounded=0;shadow=0;html=0;" parent="zkfFHV4jXpPFQw0GAbJ--0" vertex="1">
          <mxGeometry y="218" width="180" height="26" as="geometry" />
        </mxCell>
        <mxCell id="si9qJeXfL94xBMsDzdu2-29" value="pubWalletKey: String" style="text;align=left;verticalAlign=top;spacingLeft=4;spacingRight=4;overflow=hidden;rotatable=0;points=[[0,0.5],[1,0.5]];portConstraint=eastwest;rounded=0;shadow=0;html=0;" parent="zkfFHV4jXpPFQw0GAbJ--0" vertex="1">
          <mxGeometry y="244" width="180" height="26" as="geometry" />
        </mxCell>
        <mxCell id="mFo7Af1FygTeGTeYV0Hn-39" value="privateWalletKey: String" style="text;align=left;verticalAlign=top;spacingLeft=4;spacingRight=4;overflow=hidden;rotatable=0;points=[[0,0.5],[1,0.5]];portConstraint=eastwest;rounded=0;shadow=0;html=0;" parent="zkfFHV4jXpPFQw0GAbJ--0" vertex="1">
          <mxGeometry y="270" width="180" height="26" as="geometry" />
        </mxCell>
        <mxCell id="si9qJeXfL94xBMsDzdu2-32" value="preferences: JSON" style="text;align=left;verticalAlign=top;spacingLeft=4;spacingRight=4;overflow=hidden;rotatable=0;points=[[0,0.5],[1,0.5]];portConstraint=eastwest;rounded=0;shadow=0;html=0;" parent="zkfFHV4jXpPFQw0GAbJ--0" vertex="1">
          <mxGeometry y="296" width="180" height="26" as="geometry" />
        </mxCell>
        <mxCell id="si9qJeXfL94xBMsDzdu2-33" value="updatedAt: Timestamp" style="text;align=left;verticalAlign=top;spacingLeft=4;spacingRight=4;overflow=hidden;rotatable=0;points=[[0,0.5],[1,0.5]];portConstraint=eastwest;rounded=0;shadow=0;html=0;" parent="zkfFHV4jXpPFQw0GAbJ--0" vertex="1">
          <mxGeometry y="322" width="180" height="26" as="geometry" />
        </mxCell>
        <mxCell id="si9qJeXfL94xBMsDzdu2-34" value="deletedAt: Timestamp | null" style="text;align=left;verticalAlign=top;spacingLeft=4;spacingRight=4;overflow=hidden;rotatable=0;points=[[0,0.5],[1,0.5]];portConstraint=eastwest;rounded=0;shadow=0;html=0;" parent="zkfFHV4jXpPFQw0GAbJ--0" vertex="1">
          <mxGeometry y="348" width="180" height="26" as="geometry" />
        </mxCell>
        <mxCell id="si9qJeXfL94xBMsDzdu2-4" value="createdAt: Timestamp" style="text;align=left;verticalAlign=top;spacingLeft=4;spacingRight=4;overflow=hidden;rotatable=0;points=[[0,0.5],[1,0.5]];portConstraint=eastwest;rounded=0;shadow=0;html=0;" parent="zkfFHV4jXpPFQw0GAbJ--0" vertex="1">
          <mxGeometry y="374" width="180" height="26" as="geometry" />
        </mxCell>
        <mxCell id="si9qJeXfL94xBMsDzdu2-2" value="latestLogIn: Timestamp" style="text;align=left;verticalAlign=top;spacingLeft=4;spacingRight=4;overflow=hidden;rotatable=0;points=[[0,0.5],[1,0.5]];portConstraint=eastwest;rounded=0;shadow=0;html=0;" parent="zkfFHV4jXpPFQw0GAbJ--0" vertex="1">
          <mxGeometry y="400" width="180" height="26" as="geometry" />
        </mxCell>
        <mxCell id="mFo7Af1FygTeGTeYV0Hn-40" value="positions: ArrayList&lt;UUID&gt;" style="text;align=left;verticalAlign=top;spacingLeft=4;spacingRight=4;overflow=hidden;rotatable=0;points=[[0,0.5],[1,0.5]];portConstraint=eastwest;rounded=0;shadow=0;html=0;" parent="zkfFHV4jXpPFQw0GAbJ--0" vertex="1">
          <mxGeometry y="426" width="180" height="26" as="geometry" />
        </mxCell>
        <mxCell id="si9qJeXfL94xBMsDzdu2-6" value="&lt;span style=&quot;text-align: left;&quot;&gt;public enum AccountStatus{&lt;/span&gt;&lt;br style=&quot;text-align: left;&quot;&gt;&lt;span style=&quot;text-align: left;&quot;&gt;&amp;nbsp; &amp;nbsp; ACTIVE,&lt;/span&gt;&lt;div&gt;BANNED,&lt;/div&gt;&lt;div&gt;&lt;div style=&quot;text-align: center;&quot;&gt;DELETED&lt;/div&gt;&lt;span style=&quot;text-align: left;&quot;&gt;&amp;nbsp; &amp;nbsp; // при необходимости — ещё…&lt;/span&gt;&lt;br style=&quot;text-align: left;&quot;&gt;&lt;span style=&quot;text-align: left;&quot;&gt;}&lt;/span&gt;&lt;/div&gt;" style="rounded=0;whiteSpace=wrap;html=1;fillColor=#05FF00;" parent="WIyWlLk6GJQsqaUBKTNV-1" vertex="1">
          <mxGeometry x="-50" y="299" width="120" height="156" as="geometry" />
        </mxCell>
        <mxCell id="si9qJeXfL94xBMsDzdu2-7" style="edgeStyle=orthogonalEdgeStyle;rounded=0;orthogonalLoop=1;jettySize=auto;html=1;exitX=0;exitY=0.5;exitDx=0;exitDy=0;entryX=1;entryY=0.5;entryDx=0;entryDy=0;" parent="WIyWlLk6GJQsqaUBKTNV-1" source="si9qJeXfL94xBMsDzdu2-5" target="si9qJeXfL94xBMsDzdu2-6" edge="1">
          <mxGeometry relative="1" as="geometry" />
        </mxCell>
        <mxCell id="si9qJeXfL94xBMsDzdu2-9" value="public enum UserRole {&lt;div&gt;USER,&lt;/div&gt;&lt;div&gt;ADMIN,&lt;/div&gt;&lt;div&gt;ROOT }&lt;/div&gt;" style="rounded=0;whiteSpace=wrap;html=1;fillColor=#05FF00;" parent="WIyWlLk6GJQsqaUBKTNV-1" vertex="1">
          <mxGeometry x="70" y="470" width="120" height="90" as="geometry" />
        </mxCell>
        <mxCell id="si9qJeXfL94xBMsDzdu2-10" style="edgeStyle=orthogonalEdgeStyle;rounded=0;orthogonalLoop=1;jettySize=auto;html=1;exitX=0;exitY=0.5;exitDx=0;exitDy=0;entryX=0.5;entryY=0;entryDx=0;entryDy=0;" parent="WIyWlLk6GJQsqaUBKTNV-1" source="si9qJeXfL94xBMsDzdu2-8" target="si9qJeXfL94xBMsDzdu2-9" edge="1">
          <mxGeometry relative="1" as="geometry" />
        </mxCell>
        <mxCell id="si9qJeXfL94xBMsDzdu2-12" value="Trade" style="swimlane;fontStyle=2;align=center;verticalAlign=top;childLayout=stackLayout;horizontal=1;startSize=26;horizontalStack=0;resizeParent=1;resizeLast=0;collapsible=1;marginBottom=0;rounded=0;shadow=0;strokeWidth=1;fillColor=#05FF00;" parent="WIyWlLk6GJQsqaUBKTNV-1" vertex="1">
          <mxGeometry x="680" y="560" width="280" height="260" as="geometry">
            <mxRectangle x="230" y="140" width="160" height="26" as="alternateBounds" />
          </mxGeometry>
        </mxCell>
        <mxCell id="si9qJeXfL94xBMsDzdu2-13" value="id: Long" style="text;align=left;verticalAlign=top;spacingLeft=4;spacingRight=4;overflow=hidden;rotatable=0;points=[[0,0.5],[1,0.5]];portConstraint=eastwest;" parent="si9qJeXfL94xBMsDzdu2-12" vertex="1">
          <mxGeometry y="26" width="280" height="26" as="geometry" />
        </mxCell>
        <mxCell id="si9qJeXfL94xBMsDzdu2-35" value="userId: Long" style="text;align=left;verticalAlign=top;spacingLeft=4;spacingRight=4;overflow=hidden;rotatable=0;points=[[0,0.5],[1,0.5]];portConstraint=eastwest;" parent="si9qJeXfL94xBMsDzdu2-12" vertex="1">
          <mxGeometry y="52" width="280" height="26" as="geometry" />
        </mxCell>
        <mxCell id="si9qJeXfL94xBMsDzdu2-42" value="status: Enum(open, closed, failed)" style="text;align=left;verticalAlign=top;spacingLeft=4;spacingRight=4;overflow=hidden;rotatable=0;points=[[0,0.5],[1,0.5]];portConstraint=eastwest;" parent="si9qJeXfL94xBMsDzdu2-12" vertex="1">
          <mxGeometry y="78" width="280" height="26" as="geometry" />
        </mxCell>
        <mxCell id="si9qJeXfL94xBMsDzdu2-44" value="createdAt: Timestamp" style="text;align=left;verticalAlign=top;spacingLeft=4;spacingRight=4;overflow=hidden;rotatable=0;points=[[0,0.5],[1,0.5]];portConstraint=eastwest;" parent="si9qJeXfL94xBMsDzdu2-12" vertex="1">
          <mxGeometry y="104" width="280" height="26" as="geometry" />
        </mxCell>
        <mxCell id="si9qJeXfL94xBMsDzdu2-45" value="closedAt: Timestamp | null" style="text;align=left;verticalAlign=top;spacingLeft=4;spacingRight=4;overflow=hidden;rotatable=0;points=[[0,0.5],[1,0.5]];portConstraint=eastwest;" parent="si9qJeXfL94xBMsDzdu2-12" vertex="1">
          <mxGeometry y="130" width="280" height="26" as="geometry" />
        </mxCell>
        <mxCell id="mFo7Af1FygTeGTeYV0Hn-25" value="operations: &lt;BuyOperation, SellOperation | null&gt;" style="text;align=left;verticalAlign=top;spacingLeft=4;spacingRight=4;overflow=hidden;rotatable=0;points=[[0,0.5],[1,0.5]];portConstraint=eastwest;" parent="si9qJeXfL94xBMsDzdu2-12" vertex="1">
          <mxGeometry y="156" width="280" height="26" as="geometry" />
        </mxCell>
        <mxCell id="mFo7Af1FygTeGTeYV0Hn-31" value="profitAbs: int" style="text;align=left;verticalAlign=top;spacingLeft=4;spacingRight=4;overflow=hidden;rotatable=0;points=[[0,0.5],[1,0.5]];portConstraint=eastwest;" parent="si9qJeXfL94xBMsDzdu2-12" vertex="1">
          <mxGeometry y="182" width="280" height="26" as="geometry" />
        </mxCell>
        <mxCell id="mFo7Af1FygTeGTeYV0Hn-32" value="profitPct: int" style="text;align=left;verticalAlign=top;spacingLeft=4;spacingRight=4;overflow=hidden;rotatable=0;points=[[0,0.5],[1,0.5]];portConstraint=eastwest;" parent="si9qJeXfL94xBMsDzdu2-12" vertex="1">
          <mxGeometry y="208" width="280" height="26" as="geometry" />
        </mxCell>
        <mxCell id="mFo7Af1FygTeGTeYV0Hn-33" value="holdingPeriod: DateTime" style="text;align=left;verticalAlign=top;spacingLeft=4;spacingRight=4;overflow=hidden;rotatable=0;points=[[0,0.5],[1,0.5]];portConstraint=eastwest;" parent="si9qJeXfL94xBMsDzdu2-12" vertex="1">
          <mxGeometry y="234" width="280" height="26" as="geometry" />
        </mxCell>
        <mxCell id="si9qJeXfL94xBMsDzdu2-26" value="Strategy" style="swimlane;fontStyle=2;align=center;verticalAlign=top;childLayout=stackLayout;horizontal=1;startSize=26;horizontalStack=0;resizeParent=1;resizeLast=0;collapsible=1;marginBottom=0;rounded=0;shadow=0;strokeWidth=1;fillColor=#05FF00;" parent="WIyWlLk6GJQsqaUBKTNV-1" vertex="1">
          <mxGeometry x="690" y="360" width="180" height="156" as="geometry">
            <mxRectangle x="230" y="140" width="160" height="26" as="alternateBounds" />
          </mxGeometry>
        </mxCell>
        <mxCell id="si9qJeXfL94xBMsDzdu2-27" value="id: UUID" style="text;align=left;verticalAlign=top;spacingLeft=4;spacingRight=4;overflow=hidden;rotatable=0;points=[[0,0.5],[1,0.5]];portConstraint=eastwest;" parent="si9qJeXfL94xBMsDzdu2-26" vertex="1">
          <mxGeometry y="26" width="180" height="26" as="geometry" />
        </mxCell>
        <mxCell id="mFo7Af1FygTeGTeYV0Hn-35" value="lossLimit: Double" style="text;align=left;verticalAlign=top;spacingLeft=4;spacingRight=4;overflow=hidden;rotatable=0;points=[[0,0.5],[1,0.5]];portConstraint=eastwest;" parent="si9qJeXfL94xBMsDzdu2-26" vertex="1">
          <mxGeometry y="52" width="180" height="26" as="geometry" />
        </mxCell>
        <mxCell id="mFo7Af1FygTeGTeYV0Hn-36" value="incomeLimit: Double" style="text;align=left;verticalAlign=top;spacingLeft=4;spacingRight=4;overflow=hidden;rotatable=0;points=[[0,0.5],[1,0.5]];portConstraint=eastwest;" parent="si9qJeXfL94xBMsDzdu2-26" vertex="1">
          <mxGeometry y="78" width="180" height="26" as="geometry" />
        </mxCell>
        <mxCell id="mFo7Af1FygTeGTeYV0Hn-37" value="potentialIncomeLimit: Double" style="text;align=left;verticalAlign=top;spacingLeft=4;spacingRight=4;overflow=hidden;rotatable=0;points=[[0,0.5],[1,0.5]];portConstraint=eastwest;" parent="si9qJeXfL94xBMsDzdu2-26" vertex="1">
          <mxGeometry y="104" width="180" height="26" as="geometry" />
        </mxCell>
        <mxCell id="mFo7Af1FygTeGTeYV0Hn-38" value="recheckPeriod: Uint" style="text;align=left;verticalAlign=top;spacingLeft=4;spacingRight=4;overflow=hidden;rotatable=0;points=[[0,0.5],[1,0.5]];portConstraint=eastwest;" parent="si9qJeXfL94xBMsDzdu2-26" vertex="1">
          <mxGeometry y="130" width="180" height="26" as="geometry" />
        </mxCell>
        <mxCell id="si9qJeXfL94xBMsDzdu2-28" style="edgeStyle=orthogonalEdgeStyle;rounded=0;orthogonalLoop=1;jettySize=auto;html=1;exitX=1;exitY=0.5;exitDx=0;exitDy=0;entryX=-0.006;entryY=0.606;entryDx=0;entryDy=0;entryPerimeter=0;" parent="WIyWlLk6GJQsqaUBKTNV-1" source="si9qJeXfL94xBMsDzdu2-25" target="si9qJeXfL94xBMsDzdu2-27" edge="1">
          <mxGeometry relative="1" as="geometry" />
        </mxCell>
        <mxCell id="mFo7Af1FygTeGTeYV0Hn-1" value="Balance" style="swimlane;fontStyle=2;align=center;verticalAlign=top;childLayout=stackLayout;horizontal=1;startSize=26;horizontalStack=0;resizeParent=1;resizeLast=0;collapsible=1;marginBottom=0;rounded=0;shadow=0;strokeWidth=1;fillColor=#05FF00;" parent="WIyWlLk6GJQsqaUBKTNV-1" vertex="1">
          <mxGeometry x="480" y="140" width="160" height="110" as="geometry">
            <mxRectangle x="230" y="140" width="160" height="26" as="alternateBounds" />
          </mxGeometry>
        </mxCell>
        <mxCell id="mFo7Af1FygTeGTeYV0Hn-2" value="id: UUID" style="text;align=left;verticalAlign=top;spacingLeft=4;spacingRight=4;overflow=hidden;rotatable=0;points=[[0,0.5],[1,0.5]];portConstraint=eastwest;" parent="mFo7Af1FygTeGTeYV0Hn-1" vertex="1">
          <mxGeometry y="26" width="160" height="26" as="geometry" />
        </mxCell>
        <mxCell id="mFo7Af1FygTeGTeYV0Hn-3" value="token_name: String" style="text;align=left;verticalAlign=top;spacingLeft=4;spacingRight=4;overflow=hidden;rotatable=0;points=[[0,0.5],[1,0.5]];portConstraint=eastwest;" parent="mFo7Af1FygTeGTeYV0Hn-1" vertex="1">
          <mxGeometry y="52" width="160" height="26" as="geometry" />
        </mxCell>
        <mxCell id="mFo7Af1FygTeGTeYV0Hn-4" value="amount: Uint" style="text;align=left;verticalAlign=top;spacingLeft=4;spacingRight=4;overflow=hidden;rotatable=0;points=[[0,0.5],[1,0.5]];portConstraint=eastwest;" parent="mFo7Af1FygTeGTeYV0Hn-1" vertex="1">
          <mxGeometry y="78" width="160" height="26" as="geometry" />
        </mxCell>
        <mxCell id="mFo7Af1FygTeGTeYV0Hn-5" style="edgeStyle=orthogonalEdgeStyle;rounded=0;orthogonalLoop=1;jettySize=auto;html=1;exitX=1;exitY=0.5;exitDx=0;exitDy=0;entryX=0;entryY=0.5;entryDx=0;entryDy=0;" parent="WIyWlLk6GJQsqaUBKTNV-1" source="si9qJeXfL94xBMsDzdu2-3" target="mFo7Af1FygTeGTeYV0Hn-3" edge="1">
          <mxGeometry relative="1" as="geometry" />
        </mxCell>
        <mxCell id="mFo7Af1FygTeGTeYV0Hn-6" value="Operation - abstract" style="swimlane;fontStyle=2;align=center;verticalAlign=top;childLayout=stackLayout;horizontal=1;startSize=26;horizontalStack=0;resizeParent=1;resizeLast=0;collapsible=1;marginBottom=0;rounded=0;shadow=0;strokeWidth=1;fillColor=#05FF00;" parent="WIyWlLk6GJQsqaUBKTNV-1" vertex="1">
          <mxGeometry x="1090" y="205" width="220" height="205" as="geometry">
            <mxRectangle x="230" y="140" width="160" height="26" as="alternateBounds" />
          </mxGeometry>
        </mxCell>
        <mxCell id="mFo7Af1FygTeGTeYV0Hn-7" value="id: UUID" style="text;align=left;verticalAlign=top;spacingLeft=4;spacingRight=4;overflow=hidden;rotatable=0;points=[[0,0.5],[1,0.5]];portConstraint=eastwest;" parent="mFo7Af1FygTeGTeYV0Hn-6" vertex="1">
          <mxGeometry y="26" width="220" height="22" as="geometry" />
        </mxCell>
        <mxCell id="mFo7Af1FygTeGTeYV0Hn-17" value="slippageBps: Int" style="text;align=left;verticalAlign=top;spacingLeft=4;spacingRight=4;overflow=hidden;rotatable=0;points=[[0,0.5],[1,0.5]];portConstraint=eastwest;" parent="mFo7Af1FygTeGTeYV0Hn-6" vertex="1">
          <mxGeometry y="48" width="220" height="22" as="geometry" />
        </mxCell>
        <mxCell id="mFo7Af1FygTeGTeYV0Hn-19" value="filledAmountIn: Decimal(38,18)" style="text;align=left;verticalAlign=top;spacingLeft=4;spacingRight=4;overflow=hidden;rotatable=0;points=[[0,0.5],[1,0.5]];portConstraint=eastwest;" parent="mFo7Af1FygTeGTeYV0Hn-6" vertex="1">
          <mxGeometry y="70" width="220" height="22" as="geometry" />
        </mxCell>
        <mxCell id="mFo7Af1FygTeGTeYV0Hn-20" value="receivedAmountOut: Decimal(38,18)" style="text;align=left;verticalAlign=top;spacingLeft=4;spacingRight=4;overflow=hidden;rotatable=0;points=[[0,0.5],[1,0.5]];portConstraint=eastwest;" parent="mFo7Af1FygTeGTeYV0Hn-6" vertex="1">
          <mxGeometry y="92" width="220" height="22" as="geometry" />
        </mxCell>
        <mxCell id="mFo7Af1FygTeGTeYV0Hn-22" value="txHash: String | null" style="text;align=left;verticalAlign=top;spacingLeft=4;spacingRight=4;overflow=hidden;rotatable=0;points=[[0,0.5],[1,0.5]];portConstraint=eastwest;" parent="mFo7Af1FygTeGTeYV0Hn-6" vertex="1">
          <mxGeometry y="114" width="220" height="22" as="geometry" />
        </mxCell>
        <mxCell id="mFo7Af1FygTeGTeYV0Hn-21" value="gasUsed: BigInt | null" style="text;align=left;verticalAlign=top;spacingLeft=4;spacingRight=4;overflow=hidden;rotatable=0;points=[[0,0.5],[1,0.5]];portConstraint=eastwest;" parent="mFo7Af1FygTeGTeYV0Hn-6" vertex="1">
          <mxGeometry y="136" width="220" height="22" as="geometry" />
        </mxCell>
        <mxCell id="mFo7Af1FygTeGTeYV0Hn-23" value="gasPrice: BigInt" style="text;align=left;verticalAlign=top;spacingLeft=4;spacingRight=4;overflow=hidden;rotatable=0;points=[[0,0.5],[1,0.5]];portConstraint=eastwest;" parent="mFo7Af1FygTeGTeYV0Hn-6" vertex="1">
          <mxGeometry y="158" width="220" height="22" as="geometry" />
        </mxCell>
        <mxCell id="mFo7Af1FygTeGTeYV0Hn-24" value="createdAt: Timestamp" style="text;align=left;verticalAlign=top;spacingLeft=4;spacingRight=4;overflow=hidden;rotatable=0;points=[[0,0.5],[1,0.5]];portConstraint=eastwest;" parent="mFo7Af1FygTeGTeYV0Hn-6" vertex="1">
          <mxGeometry y="180" width="220" height="22" as="geometry" />
        </mxCell>
        <mxCell id="mFo7Af1FygTeGTeYV0Hn-8" value="SellOperation" style="swimlane;fontStyle=2;align=center;verticalAlign=top;childLayout=stackLayout;horizontal=1;startSize=26;horizontalStack=0;resizeParent=1;resizeLast=0;collapsible=1;marginBottom=0;rounded=0;shadow=0;strokeWidth=1;fillColor=#FFFF00;" parent="WIyWlLk6GJQsqaUBKTNV-1" vertex="1">
          <mxGeometry x="970" y="487" width="160" height="60" as="geometry">
            <mxRectangle x="230" y="140" width="160" height="26" as="alternateBounds" />
          </mxGeometry>
        </mxCell>
        <mxCell id="mFo7Af1FygTeGTeYV0Hn-9" value="id: UUID" style="text;align=left;verticalAlign=top;spacingLeft=4;spacingRight=4;overflow=hidden;rotatable=0;points=[[0,0.5],[1,0.5]];portConstraint=eastwest;" parent="mFo7Af1FygTeGTeYV0Hn-8" vertex="1">
          <mxGeometry y="26" width="160" height="24" as="geometry" />
        </mxCell>
        <mxCell id="mFo7Af1FygTeGTeYV0Hn-10" value="BuyOperation" style="swimlane;fontStyle=2;align=center;verticalAlign=top;childLayout=stackLayout;horizontal=1;startSize=26;horizontalStack=0;resizeParent=1;resizeLast=0;collapsible=1;marginBottom=0;rounded=0;shadow=0;strokeWidth=1;fillColor=#FFFF00;" parent="WIyWlLk6GJQsqaUBKTNV-1" vertex="1">
          <mxGeometry x="1270" y="491" width="160" height="58" as="geometry">
            <mxRectangle x="230" y="140" width="160" height="26" as="alternateBounds" />
          </mxGeometry>
        </mxCell>
        <mxCell id="mFo7Af1FygTeGTeYV0Hn-11" value="id: UUID" style="text;align=left;verticalAlign=top;spacingLeft=4;spacingRight=4;overflow=hidden;rotatable=0;points=[[0,0.5],[1,0.5]];portConstraint=eastwest;" parent="mFo7Af1FygTeGTeYV0Hn-10" vertex="1">
          <mxGeometry y="26" width="160" height="26" as="geometry" />
        </mxCell>
        <mxCell id="mFo7Af1FygTeGTeYV0Hn-12" style="edgeStyle=orthogonalEdgeStyle;rounded=0;orthogonalLoop=1;jettySize=auto;html=1;exitX=0;exitY=0.5;exitDx=0;exitDy=0;entryX=0.5;entryY=0;entryDx=0;entryDy=0;" parent="WIyWlLk6GJQsqaUBKTNV-1" source="mFo7Af1FygTeGTeYV0Hn-7" target="mFo7Af1FygTeGTeYV0Hn-8" edge="1">
          <mxGeometry relative="1" as="geometry" />
        </mxCell>
        <mxCell id="mFo7Af1FygTeGTeYV0Hn-13" style="edgeStyle=orthogonalEdgeStyle;rounded=0;orthogonalLoop=1;jettySize=auto;html=1;exitX=1;exitY=0.5;exitDx=0;exitDy=0;entryX=0.5;entryY=0;entryDx=0;entryDy=0;" parent="WIyWlLk6GJQsqaUBKTNV-1" source="mFo7Af1FygTeGTeYV0Hn-7" target="mFo7Af1FygTeGTeYV0Hn-10" edge="1">
          <mxGeometry relative="1" as="geometry" />
        </mxCell>
        <mxCell id="mFo7Af1FygTeGTeYV0Hn-26" style="edgeStyle=orthogonalEdgeStyle;rounded=0;orthogonalLoop=1;jettySize=auto;html=1;exitX=1;exitY=0.5;exitDx=0;exitDy=0;entryX=0.5;entryY=1;entryDx=0;entryDy=0;" parent="WIyWlLk6GJQsqaUBKTNV-1" source="mFo7Af1FygTeGTeYV0Hn-25" target="mFo7Af1FygTeGTeYV0Hn-8" edge="1">
          <mxGeometry relative="1" as="geometry" />
        </mxCell>
        <mxCell id="mFo7Af1FygTeGTeYV0Hn-27" style="edgeStyle=orthogonalEdgeStyle;rounded=0;orthogonalLoop=1;jettySize=auto;html=1;exitX=1;exitY=0.5;exitDx=0;exitDy=0;entryX=0.5;entryY=1;entryDx=0;entryDy=0;" parent="WIyWlLk6GJQsqaUBKTNV-1" source="mFo7Af1FygTeGTeYV0Hn-25" target="mFo7Af1FygTeGTeYV0Hn-10" edge="1">
          <mxGeometry relative="1" as="geometry" />
        </mxCell>
        <mxCell id="mFo7Af1FygTeGTeYV0Hn-49" style="edgeStyle=orthogonalEdgeStyle;rounded=0;orthogonalLoop=1;jettySize=auto;html=1;exitX=0.5;exitY=0;exitDx=0;exitDy=0;entryX=0;entryY=0.5;entryDx=0;entryDy=0;" parent="WIyWlLk6GJQsqaUBKTNV-1" source="mFo7Af1FygTeGTeYV0Hn-41" target="mFo7Af1FygTeGTeYV0Hn-35" edge="1">
          <mxGeometry relative="1" as="geometry" />
        </mxCell>
        <mxCell id="mFo7Af1FygTeGTeYV0Hn-41" value="Position" style="swimlane;fontStyle=2;align=center;verticalAlign=top;childLayout=stackLayout;horizontal=1;startSize=26;horizontalStack=0;resizeParent=1;resizeLast=0;collapsible=1;marginBottom=0;rounded=0;shadow=0;strokeWidth=1;fillColor=#05FF00;" parent="WIyWlLk6GJQsqaUBKTNV-1" vertex="1">
          <mxGeometry x="450" y="630" width="180" height="292" as="geometry">
            <mxRectangle x="230" y="140" width="160" height="26" as="alternateBounds" />
          </mxGeometry>
        </mxCell>
        <mxCell id="mFo7Af1FygTeGTeYV0Hn-42" value="id: UUID" style="text;align=left;verticalAlign=top;spacingLeft=4;spacingRight=4;overflow=hidden;rotatable=0;points=[[0,0.5],[1,0.5]];portConstraint=eastwest;" parent="mFo7Af1FygTeGTeYV0Hn-41" vertex="1">
          <mxGeometry y="26" width="180" height="26" as="geometry" />
        </mxCell>
        <mxCell id="mFo7Af1FygTeGTeYV0Hn-43" value="amountIn: Uint" style="text;align=left;verticalAlign=top;spacingLeft=4;spacingRight=4;overflow=hidden;rotatable=0;points=[[0,0.5],[1,0.5]];portConstraint=eastwest;" parent="mFo7Af1FygTeGTeYV0Hn-41" vertex="1">
          <mxGeometry y="52" width="180" height="26" as="geometry" />
        </mxCell>
        <mxCell id="mFo7Af1FygTeGTeYV0Hn-15" value="tokenIn: String" style="text;align=left;verticalAlign=top;spacingLeft=4;spacingRight=4;overflow=hidden;rotatable=0;points=[[0,0.5],[1,0.5]];portConstraint=eastwest;" parent="mFo7Af1FygTeGTeYV0Hn-41" vertex="1">
          <mxGeometry y="78" width="180" height="22" as="geometry" />
        </mxCell>
        <mxCell id="mFo7Af1FygTeGTeYV0Hn-16" value="tokenOut: String" style="text;align=left;verticalAlign=top;spacingLeft=4;spacingRight=4;overflow=hidden;rotatable=0;points=[[0,0.5],[1,0.5]];portConstraint=eastwest;" parent="mFo7Af1FygTeGTeYV0Hn-41" vertex="1">
          <mxGeometry y="100" width="180" height="22" as="geometry" />
        </mxCell>
        <mxCell id="mFo7Af1FygTeGTeYV0Hn-48" value="tokenOut: String" style="text;align=left;verticalAlign=top;spacingLeft=4;spacingRight=4;overflow=hidden;rotatable=0;points=[[0,0.5],[1,0.5]];portConstraint=eastwest;" parent="mFo7Af1FygTeGTeYV0Hn-41" vertex="1">
          <mxGeometry y="122" width="180" height="22" as="geometry" />
        </mxCell>
        <mxCell id="mFo7Af1FygTeGTeYV0Hn-50" value="strategy: Strategy" style="text;align=left;verticalAlign=top;spacingLeft=4;spacingRight=4;overflow=hidden;rotatable=0;points=[[0,0.5],[1,0.5]];portConstraint=eastwest;" parent="mFo7Af1FygTeGTeYV0Hn-41" vertex="1">
          <mxGeometry y="144" width="180" height="22" as="geometry" />
        </mxCell>
        <mxCell id="mFo7Af1FygTeGTeYV0Hn-51" value="trades: ArrayList &lt;UUID&gt;" style="text;align=left;verticalAlign=top;spacingLeft=4;spacingRight=4;overflow=hidden;rotatable=0;points=[[0,0.5],[1,0.5]];portConstraint=eastwest;" parent="mFo7Af1FygTeGTeYV0Hn-41" vertex="1">
          <mxGeometry y="166" width="180" height="22" as="geometry" />
        </mxCell>
        <mxCell id="si9qJeXfL94xBMsDzdu2-36" value="chainId: Int" style="text;align=left;verticalAlign=top;spacingLeft=4;spacingRight=4;overflow=hidden;rotatable=0;points=[[0,0.5],[1,0.5]];portConstraint=eastwest;" parent="mFo7Af1FygTeGTeYV0Hn-41" vertex="1">
          <mxGeometry y="188" width="180" height="26" as="geometry" />
        </mxCell>
        <mxCell id="mFo7Af1FygTeGTeYV0Hn-14" value="network: Enum" style="text;align=left;verticalAlign=top;spacingLeft=4;spacingRight=4;overflow=hidden;rotatable=0;points=[[0,0.5],[1,0.5]];portConstraint=eastwest;" parent="mFo7Af1FygTeGTeYV0Hn-41" vertex="1">
          <mxGeometry y="214" width="180" height="26" as="geometry" />
        </mxCell>
        <mxCell id="si9qJeXfL94xBMsDzdu2-38" value="dex: Enum" style="text;align=left;verticalAlign=top;spacingLeft=4;spacingRight=4;overflow=hidden;rotatable=0;points=[[0,0.5],[1,0.5]];portConstraint=eastwest;" parent="mFo7Af1FygTeGTeYV0Hn-41" vertex="1">
          <mxGeometry y="240" width="180" height="26" as="geometry" />
        </mxCell>
        <mxCell id="si9qJeXfL94xBMsDzdu2-39" value="poolAddress: String" style="text;align=left;verticalAlign=top;spacingLeft=4;spacingRight=4;overflow=hidden;rotatable=0;points=[[0,0.5],[1,0.5]];portConstraint=eastwest;" parent="mFo7Af1FygTeGTeYV0Hn-41" vertex="1">
          <mxGeometry y="266" width="180" height="26" as="geometry" />
        </mxCell>
        <mxCell id="mFo7Af1FygTeGTeYV0Hn-53" style="edgeStyle=orthogonalEdgeStyle;rounded=0;orthogonalLoop=1;jettySize=auto;html=1;exitX=1;exitY=0.5;exitDx=0;exitDy=0;entryX=0.25;entryY=0;entryDx=0;entryDy=0;" parent="WIyWlLk6GJQsqaUBKTNV-1" source="mFo7Af1FygTeGTeYV0Hn-40" target="mFo7Af1FygTeGTeYV0Hn-41" edge="1">
          <mxGeometry relative="1" as="geometry" />
        </mxCell>
        <mxCell id="mFo7Af1FygTeGTeYV0Hn-54" style="edgeStyle=orthogonalEdgeStyle;rounded=0;orthogonalLoop=1;jettySize=auto;html=1;entryX=0;entryY=0.5;entryDx=0;entryDy=0;" parent="WIyWlLk6GJQsqaUBKTNV-1" target="si9qJeXfL94xBMsDzdu2-45" edge="1">
          <mxGeometry relative="1" as="geometry">
            <mxPoint x="640" y="810" as="sourcePoint" />
            <Array as="points">
              <mxPoint x="630" y="810" />
              <mxPoint x="655" y="810" />
              <mxPoint x="655" y="703" />
            </Array>
          </mxGeometry>
        </mxCell>
      </root>
    </mxGraphModel>
  </diagram>
</mxfile>
